<!--?xml version="1.0" encoding="UTF-8"?-->
<svg fill="#EE7D21" xmlns="http://www.w3.org/2000/svg" viewBox="0 0 512 512" width="512" height="512"><g id="outline"><path d="M416,392V371.93a8,8,0,0,0-8-8h-2.649L396.4,307.2a67.67,67.67,0,0,0-33.1-48.236c-.023-.015-.047-.028-.071-.043-.087-.05-.169-.107-.256-.156l-26.6-15.2a68.541,68.541,0,0,0,2.688-10.7l1.327-7.97A266.721,266.721,0,0,0,344,181.161V146.514h22.88a17.12,17.12,0,0,0,4.7-33.582L326.64,100.09l-17-63.86a7.972,7.972,0,0,0-.551-1.43,34,34,0,0,0-50.811-11.994L256,24.514l-2.277-1.708A34,34,0,0,0,202.912,34.8a7.972,7.972,0,0,0-.551,1.43l-17,63.86-44.941,12.842a17.12,17.12,0,0,0,4.7,33.582H168v34.647a266.809,266.809,0,0,0,3.619,43.73l1.328,7.972a68.557,68.557,0,0,0,2.688,10.7l-26.6,15.2A67.681,67.681,0,0,0,115.605,307.2l-13.4,84.874a23.994,23.994,0,0,0-6.2,46.55V488a8,8,0,0,0,8,8H396a35.979,35.979,0,0,0,28.738-57.654A24,24,0,0,0,416,392Zm-16-12.07v32a39.791,39.791,0,0,1-1.884,12.137c-.7-.041-1.4-.067-2.116-.067h-8.783A32.931,32.931,0,0,0,392,406.869a8,8,0,0,0-16,0A17.15,17.15,0,0,1,358.869,424a22.758,22.758,0,0,1-17.882-8.612,21.253,21.253,0,0,1-4.675-9.647,8,8,0,0,0-15.747,2.842A36.449,36.449,0,0,0,327.448,424H296V381.826a68.847,68.847,0,0,0-3.54-21.814,12.165,12.165,0,0,1,18.288-13.969A20.736,20.736,0,0,1,320,363.331v14.6a18.021,18.021,0,0,0,18,18h18.687a35.082,35.082,0,0,0,24.97-10.343,19.181,19.181,0,0,1,13.656-5.657Zm-124.1-22.1L273.356,360H216.551l2.166-32.481L256,298.245l37.284,29.277.169,2.537A28.068,28.068,0,0,0,275.9,357.826Zm4.1,24v1.2l-5.646-2.837,5.285-4.513A53.187,53.187,0,0,1,280,381.826ZM204.08,259.28l-.827-.826a51.717,51.717,0,0,1-14.523-28.221l-1.329-7.972a250.817,250.817,0,0,1-3.4-41.1V146.514h8v33.632a61.6,61.6,0,0,0,18.159,43.841l.184.184a8,8,0,0,0,12.313-1.22l8.875-13.312a15.971,15.971,0,0,1,13.314-7.125h22.31a15.971,15.971,0,0,1,13.314,7.125l8.875,13.312a8,8,0,0,0,5.868,3.524c.264.026.526.039.789.039a8,8,0,0,0,5.656-2.343l.184-.184A61.6,61.6,0,0,0,320,180.146V146.514h8v34.647a250.729,250.729,0,0,1-3.4,41.1l-1.328,7.97a51.712,51.712,0,0,1-14.519,28.218l-.835.833a51.66,51.66,0,0,1-36.769,15.231H240.853a51.787,51.787,0,0,1-22.862-5.28c-.183-.1-.371-.2-.564-.284A52.143,52.143,0,0,1,204.08,259.28Zm1.715,21.527L200.516,360H177.138l12.373-92.8c.789.874,1.593,1.738,2.431,2.576l.828.827A68.5,68.5,0,0,0,205.8,280.807Zm54.643-116.95a8,8,0,0,0-11.094,2.219L234.59,188.207a31.927,31.927,0,0,0-16.371,12.557l-2.886,4.328A45.691,45.691,0,0,1,208,180.146V146.514h96v33.632a45.691,45.691,0,0,1-7.333,24.946l-2.886-4.328a31.935,31.935,0,0,0-26.626-14.25H254.948l7.708-11.563A8,8,0,0,0,260.438,163.857Zm31.441,142.6L271.925,290.5a68.186,68.186,0,0,0,18.7-2.806Zm-51.8-15.963-19.954,15.963,1.251-18.769A68.186,68.186,0,0,0,240.075,290.5Zm145.891,53.252,2.576,16.316-9.513.179L376.972,344H384A8.012,8.012,0,0,0,385.966,343.747ZM380.954,312l2.526,16h-8.534l-2.026-16Zm-4.506-16h-5.554l-1.408-11.114A51.537,51.537,0,0,1,376.448,296Zm-11.486,80.509.184,1.456a19.2,19.2,0,0,1-8.306,1.957l-.511-3.251Zm-2.022-15.966-9.12.171L351.192,344h9.653ZM358.819,328H348.676l-2.515-16h10.631Zm-7.26-57.323L354.766,296H344c-.119,0-.234.013-.352.018l-5.158-32.81ZM340.644,379.93H338a2,2,0,0,1-2-2v-14.6a36.7,36.7,0,0,0-16.377-30.6,28.172,28.172,0,0,0-10.237-4.206l-3.181-47.717A68.507,68.507,0,0,0,319.227,270.6l.835-.834c.967-.968,1.891-1.967,2.793-2.982ZM217.548,41.335a18,18,0,0,1,26.575-5.729l7.077,5.308a8,8,0,0,0,9.6,0l7.077-5.308a18,18,0,0,1,26.575,5.729l7.015,25.179H210.533Zm-11.3,41.179h99.508l4,16H202.246Zm-61.126,48a1.121,1.121,0,0,1-.307-2.2l48.307-13.8H318.88l48.308,13.8a1.121,1.121,0,0,1-.308,2.2Zm15.321,140.163,13.493-7.711-4.424,33.181A8,8,0,0,0,168,296H157.234ZM155.208,312H167.4l-2.133,16H153.182Zm-4.053,32h11.974L161,360H149.129Zm-8.641-59.114L141.106,296h-5.554A51.513,51.513,0,0,1,142.514,284.886ZM131.046,312h8.034l-2.026,16H128.52Zm-5.012,31.747A8.012,8.012,0,0,0,128,344h7.028L133,360h-9.534ZM120.941,376h10.035l-2.027,16H118.415Zm23.14,104H112V440h34.6Q144.442,459.937,144.081,480Zm4.556-56H104a8,8,0,0,1,0-16h47.254Q149.8,415.974,148.637,424Zm5.966-32.593c-.054.241-.1.483-.156.723A24.271,24.271,0,0,0,152,392h-6.923l2.026-16h10.924ZM160.075,480a430.1,430.1,0,0,1,10.147-85.122L174.417,376h80.229a7.989,7.989,0,0,0,1.762,13.078L278.143,400H200a8,8,0,0,0-8,8v20a36.04,36.04,0,0,0,36,36h6.555l12.8,16Zm76.109-64-11.612,29.029a7.962,7.962,0,0,0-.545,2.572A20.032,20.032,0,0,1,208,428V416ZM396,480H267.845l-26.686-33.357L253.416,416H280v16a8,8,0,0,0,8,8H396a20,20,0,0,1,0,40Zm20-56h-1.31A56.142,56.142,0,0,0,416,411.93V408a8,8,0,0,1,0,16Z"></path><circle cx="232" cy="164.514" r="10"></circle><circle cx="278" cy="164.514" r="10"></circle><circle cx="256" cy="329" r="9"></circle><circle cx="304" cy="356.93" r="7"></circle><path d="M243,229.514h4.687a35.082,35.082,0,0,0,24.97-10.343,8,8,0,0,0-11.314-11.315,19.182,19.182,0,0,1-13.656,5.658H243a8,8,0,0,0,0,16Z"></path></g></svg>
