<svg height="511pt" viewBox="1 -39 511.999 511" width="511pt" xmlns="http://www.w3.org/2000/svg"><path d="m504.5 383.925781c0-22.800781-99.070312-41.285156-221.28125-41.285156-122.214844 0-221.285156 18.484375-221.285156 41.285156 0 22.804688 99.070312 41.289063 221.285156 41.289063 122.210938 0 221.28125-18.484375 221.28125-41.289063zm0 0" fill="#1fc99a"></path><path d="m504.5 383.925781c0 2.667969-1.355469 5.269531-3.945312 7.796875-19.53125-19.082031-109.410157-33.496094-217.332032-33.496094-107.9375 0-197.816406 14.414063-217.347656 33.496094-2.589844-2.527344-3.941406-5.128906-3.941406-7.796875 0-22.800781 99.070312-41.285156 221.289062-41.285156 122.207032 0 221.277344 18.484375 221.277344 41.285156zm0 0" fill="#34e8b1"></path><path d="m455.007812 251.6875v127.335938h-165.203124v-127.335938c0-31.226562-25.398438-56.621094-56.613282-56.621094h-19.191406v-165.199218h19.191406c59.253906 0 114.949219 23.066406 156.847656 64.96875 41.894532 41.890624 64.96875 97.597656 64.96875 156.851562zm0 0" fill="#34e8b1"></path><path d="m366.679688 347.753906c-26.121094-7.75-44.007813-31.78125-44.007813-59.027344v-41.640624c0-43.753907-30.816406-85.46875-83.605469-85.46875h-25.070312v33.445312h19.195312c31.214844 0 56.613282 25.398438 56.613282 56.621094v127.339844h165.203124v-21.125c-40.542968 0-68.742187-4.335938-88.328124-10.144532zm0 0" fill="#1fc99a"></path><path d="m455.007812 251.6875s-37.65625-206.390625-241.007812-199.128906v-22.691406h19.191406c59.253906 0 114.949219 23.066406 156.847656 64.96875 41.894532 41.890624 64.96875 97.597656 64.96875 156.851562zm0 0" fill="#7cfcce"></path><path d="m7.5 21.605469h186.582031v181.722656h-186.582031zm0 0" fill="#fd9e28"></path><path d="m122.429688 122.011719h-62.710938c-5.503906 0-9.960938-4.460938-9.960938-9.960938v-90.445312h82.632813v90.445312c0 5.5-4.460937 9.960938-9.960937 9.960938zm0 0" fill="#eae1dc"></path><path d="m210.601562 216.933594h-21.378906c-5.367187 0-9.714844-4.351563-9.714844-9.71875v-189.496094c0-5.367188 4.347657-9.71875 9.714844-9.71875h21.378906c5.367188 0 9.71875 4.351562 9.71875 9.71875v189.496094c0 5.367187-4.351562 9.71875-9.71875 9.71875zm0 0" fill="#fdb659"></path><path d="m188.078125 364.847656c-5.917969 2.582032-12.660156-1.066406-13.800781-7.421875-2.753906-15.308593 2.097656-29.308593 12.941406-34.039062 10.839844-4.726563 24.402344 1.234375 33.753906 13.667969 3.878906 5.15625 1.96875 12.582031-3.945312 15.164062zm0 0" fill="#eae1dc"></path><path d="m217.03125 352.21875-13.695312 5.972656c5.917968-2.578125 7.824218-10.007812 3.945312-15.164062-7.308594-9.707032-17.171875-15.476563-26.3125-15.28125 1.78125-1.84375 3.875-3.320313 6.25-4.359375 10.84375-4.730469 24.398438 1.234375 33.757812 13.667969 3.878907 5.152343 1.96875 12.582031-3.945312 15.164062zm0 0" fill="#dfd0c7"></path><path d="m256.027344 398.050781c-.203125 4.140625 2.984375 7.660157 7.121094 7.863281 14.792968.734376 30.066406 1.105469 45.398437 1.105469 25.796875 0 50.890625-1.03125 74.585937-3.070312 4.125-.355469 7.183594-3.988281 6.832032-8.113281-.355469-4.125-3.980469-7.183594-8.117188-6.832032-23.269531 2-47.933594 3.011719-73.300781 3.011719-15.085937 0-30.113281-.363281-44.65625-1.085937-4.113281-.195313-7.65625 2.984374-7.863281 7.121093zm0 0"></path><path d="m135.773438 407.109375c-55.082032-9.332031-66.339844-20.660156-66.339844-23.183594 0-3.28125 17.472656-18.222656 97.09375-27.535156.109375.785156.226562 1.570313.367187 2.363281.957031 5.316406 4.234375 9.824219 8.992188 12.367188 2.574219 1.375 5.386719 2.066406 8.207031 2.066406 2.367188 0 4.742188-.484375 6.984375-1.464844l7.601563-3.316406 2.363281 5.421875-11.15625 4.867187c-3.792969 1.65625-5.53125 6.078126-3.875 9.875 1.230469 2.820313 3.988281 4.503907 6.878906 4.503907 1 0 2.019531-.203125 2.996094-.628907l11.15625-4.867187 3.769531 8.644531c1.230469 2.820313 3.988281 4.503906 6.878906 4.503906 1 0 2.019532-.203124 2.996094-.628906 3.796875-1.65625 5.53125-6.078125 3.875-9.875l-3.773438-8.644531 11.15625-4.867187c3.796876-1.65625 5.53125-6.078126 3.875-9.875-1.65625-3.792969-6.074218-5.53125-9.871093-3.875l-11.15625 4.867187-2.367188-5.421875 7.601563-3.316406c3.617187-1.578125 6.515625-4.28125 8.34375-7.660156 17.535156-.839844 35.652344-1.273438 53.933594-1.289063v8.964844c0 4.140625 3.355468 7.5 7.5 7.5 4.140624 0 7.5-3.359375 7.5-7.5v-107.421875c0-35.355469-28.761719-64.113282-64.113282-64.113282h-5.371094v-38.316406c0-4.140625-3.355468-7.5-7.5-7.5-4.140624 0-7.5 3.359375-7.5 7.5v57.960938c0 1.222656-.996093 2.21875-2.21875 2.21875h-21.378906c-1.222656 0-2.214844-.996094-2.214844-2.21875v-189.496094c0-1.222656.992188-2.21875 2.214844-2.21875h21.378906c1.222657 0 2.21875.996094 2.21875 2.21875v99.003906c0 4.144532 3.359376 7.5 7.5 7.5 4.144532 0 7.5-3.355468 7.5-7.5v-34.050781c34.09375 2.304687 66.617188 13.898437 94.320313 33.671875 1.324219.945312 2.84375 1.398438 4.351563 1.398438 2.34375 0 4.648437-1.09375 6.113281-3.144532 2.40625-3.371094 1.621093-8.054687-1.75-10.460937-30.25-21.59375-65.792969-34.167969-103.035157-36.5v-30.269531h5.371094c47.363282 0 92.152344 15.046874 129.527344 43.519531 1.359375 1.035156 2.957031 1.535156 4.542969 1.535156 2.257812 0 4.496093-1.019531 5.96875-2.957031 2.511719-3.292969 1.875-8-1.417969-10.511719-40.011719-30.476563-87.945312-46.589844-138.621094-46.589844h-5.371094v-4.644531c0-9.496094-7.722656-17.21875-17.214843-17.21875h-21.378907c-8.253906 0-15.164062 5.839844-16.832031 13.605469h-164.894531c-4.140625 0-7.5 3.355469-7.5 7.5 0 4.140625 3.359375 7.5 7.5 7.5h34.757812v82.945312c0 9.625 7.832032 17.457031 17.460938 17.457031h62.710938c9.625 0 17.460937-7.832031 17.460937-17.457031v-82.945312h32.117187v166.722656h-164.507812c-4.140625 0-7.5 3.359375-7.5 7.5s3.359375 7.5 7.5 7.5h164.894531c1.664063 7.765625 8.574219 13.605469 16.828125 13.605469h21.378906c9.496094 0 17.21875-7.722656 17.21875-17.21875v-4.644532h5.367188c27.082031 0 49.117188 22.03125 49.117188 49.113282v83.457031c-17.996094.015625-35.84375.433594-53.148438 1.238281-.5625-1.347656-1.289062-2.636718-2.191406-3.832031-11.746094-15.621094-28.925782-22.0625-42.746094-16.03125-9.402344 4.101563-15.625 13.269531-17.558594 24.765625-31.480468 3.613281-58 8.671875-76.847656 14.679688-23.804688 7.589843-35.378906 16.738281-35.378906 27.964843 0 9.390625 7.921875 17.21875 24.214844 23.9375 13.0625 5.386719 31.4375 10.109375 54.617187 14.035157.425781.070312.847656.105468 1.261719.105468 3.59375 0 6.765625-2.585937 7.386718-6.25.691407-4.082031-2.058593-7.953125-6.140624-8.644531zm-10.882813-295.058594c0 1.355469-1.105469 2.460938-2.460937 2.460938h-62.710938c-1.359375 0-2.460938-1.105469-2.460938-2.460938v-82.945312h67.632813zm65.324219 218.210938c1.511718-.65625 3.148437-.972657 4.863281-.972657 6.484375 0 14.070313 4.527344 19.898437 12.273438.648438.859375.550782 1.726562.433594 2.167969-.113281.425781-.441406 1.203125-1.382812 1.613281l-14.46875 6.316406c-.003906 0-.003906 0-.007813 0 0 0 0 .003906-.003906.003906l-14.46875 6.3125c-.941406.410157-1.734375.121094-2.125-.085937-.402344-.214844-1.105469-.730469-1.292969-1.792969-2.171875-12.066406 1.347656-22.691406 8.554688-25.835937zm0 0"></path><path d="m462.507812 351.984375v-100.300781c0-61.253906-23.855468-118.839844-67.167968-162.152344-2.929688-2.929688-7.679688-2.929688-10.605469 0-2.929687 2.929688-2.929687 7.679688 0 10.605469 40.480469 40.480469 62.773437 94.296875 62.773437 151.546875v129.21875c0 4.140625 3.355469 7.5 7.5 7.5 4.140626 0 7.5-3.359375 7.5-7.5v-13.421875c28.429688 7.566406 34.492188 14.8125 34.492188 16.445312 0 2.296875-9.960938 12.730469-58.6875 21.824219-41.355469 7.714844-96.4375 11.964844-155.09375 11.964844-40.960938 0-80.914062-2.117188-115.539062-6.121094-4.117188-.476562-7.835938 2.476562-8.3125 6.589844-.476563 4.113281 2.472656 7.835937 6.585937 8.3125 35.191406 4.070312 75.738281 6.21875 117.265625 6.21875 59.550781 0 115.609375-4.339844 157.84375-12.21875 20.890625-3.898438 37.402344-8.484375 49.074219-13.636719 5.40625-2.382813 21.863281-9.644531 21.863281-22.933594 0-13.339843-15.75-23.519531-49.492188-31.941406zm0 0"></path><path d="m374.054688 172.648438c16.902343 28.34375 25.835937 60.984374 25.835937 94.390624v46.585938c0 4.144531 3.355469 7.5 7.5 7.5 4.140625 0 7.5-3.355469 7.5-7.5v-46.585938c0-36.113281-9.667969-71.40625-27.949219-102.074218-2.121094-3.554688-6.726562-4.722656-10.285156-2.601563-3.554688 2.121094-4.722656 6.726563-2.601562 10.285157zm0 0"></path><path d="m269.75 150.667969c42.382812 15.390625 70.859375 55.984375 70.859375 101.015625v84.722656c0 4.140625 3.359375 7.5 7.5 7.5 4.144531 0 7.5-3.359375 7.5-7.5v-84.722656c0-51.316406-32.445313-97.578125-80.738281-115.113282-3.894532-1.414062-8.195313.59375-9.609375 4.488282-1.414063 3.894531.59375 8.195312 4.488281 9.609375zm0 0"></path><path d="m71.636719 107.335938c4.144531 0 7.5-3.359376 7.5-7.5 0-4.144532-3.355469-7.5-7.5-7.5h-.089844c-4.140625 0-7.453125 3.355468-7.453125 7.5 0 4.140624 3.402344 7.5 7.542969 7.5zm0 0"></path><path d="m110.597656 107.335938c4.144532 0 7.5-3.359376 7.5-7.5 0-4.144532-3.355468-7.5-7.5-7.5h-.089844c-4.140624 0-7.453124 3.355468-7.453124 7.5 0 4.140624 3.402343 7.5 7.542968 7.5zm0 0"></path><path d="m424.921875 343.90625c4.140625-.023438 7.480469-3.398438 7.457031-7.542969-.019531-4.140625-3.402344-7.453125-7.539062-7.457031h-.089844c-4.144531.019531-7.4375 3.398438-7.414062 7.539062.019531 4.128907 3.417968 7.460938 7.542968 7.460938zm0 0"></path><path d="m479.191406 349.601562h.042969c4.140625-.019531 7.480469-3.398437 7.457031-7.539062-.019531-4.128906-3.375-7.460938-7.5-7.460938-.011718 0-.027344 0-.039062 0h-.089844c-4.144531.023438-7.4375 3.398438-7.414062 7.542969.019531 4.128907 3.417968 7.457031 7.542968 7.457031zm0 0"></path><path d="m255.554688 291.773438c-.015626 0-.03125 0-.042969 0h-.089844c-4.144531.023437-7.4375 3.398437-7.414063 7.542968.019532 4.128906 3.417969 7.457032 7.542969 7.457032h.042969c4.140625-.019532 7.480469-3.398438 7.457031-7.539063-.023437-4.128906-3.375-7.460937-7.496093-7.460937zm0 0"></path><path d="m246.566406 321.1875c0-4.144531-3.355468-7.5-7.5-7.5h-.089844c-4.140624 0-7.453124 3.355469-7.453124 7.5 0 4.140625 3.402343 7.5 7.542968 7.5 4.144532 0 7.5-3.359375 7.5-7.5zm0 0"></path><path d="m256.066406 321.226562c.019532 4.128907 3.417969 7.460938 7.542969 7.460938h.042969c4.140625-.023438 7.480468-3.398438 7.457031-7.542969-.019531-4.128906-3.375-7.457031-7.5-7.457031-.011719 0-.027344 0-.039063 0h-.089843c-4.144531.023438-7.4375 3.398438-7.414063 7.539062zm0 0"></path><path d="m271.066406 108.296875c0-4.140625-3.359375-7.5-7.5-7.5h-.089844c-4.144531 0-7.457031 3.359375-7.457031 7.5s3.402344 7.5 7.546875 7.5c4.140625 0 7.5-3.359375 7.5-7.5zm0 0"></path><path d="m279.203125 127.566406h.042969c4.140625-.023437 7.480468-3.398437 7.457031-7.539062-.019531-4.128906-3.375-7.460938-7.5-7.460938-.011719 0-.027344 0-.039063 0h-.089843c-4.144531.023438-7.4375 3.398438-7.414063 7.542969.019532 4.125 3.417969 7.457031 7.542969 7.457031zm0 0"></path><path d="m360.875 117.738281c4.140625-.019531 7.480469-3.398437 7.457031-7.539062-.019531-4.128907-3.375-7.460938-7.496093-7.460938-.015626 0-.03125 0-.042969 0h-.089844c-4.144531.023438-7.4375 3.398438-7.414063 7.542969.019532 4.128906 3.417969 7.457031 7.542969 7.457031zm0 0"></path></svg>