<svg fill="#EE7D21" height="512" viewBox="0 0 64 64" width="512" xmlns="http://www.w3.org/2000/svg"><g id="Delivery-Free_Delivery-Shipping-Free-Ecommerce" data-name="Delivery-Free Delivery-Shipping-Free-Ecommerce"><path d="m61.5 38.13-4.5-2.57v-7.56a3.009 3.009 0 0 0 -3-3h-10v-9a1 1 0 0 0 -1-1h-40a1 1 0 0 0 -1 1v34a1 1 0 0 0 1 1h3.1a4.988 4.988 0 0 0 9.4 1.14 4.988 4.988 0 0 0 9.4-1.14h23.2a5 5 0 0 0 9.8 0h3.1a1 1 0 0 0 1-1v-11a1 1 0 0 0 -.5-.87zm-50.5 14.87a3 3 0 1 1 3-3 3.009 3.009 0 0 1 -3 3zm9 0a3 3 0 1 1 3-3 3.009 3.009 0 0 1 -3 3zm22-4h-17.1a4.988 4.988 0 0 0 -9.4-1.14 4.988 4.988 0 0 0 -9.4 1.14h-2.1v-6h38zm0-8h-38v-24h38zm9-14h3a1 1 0 0 1 1 1v7h-4zm2 26a3 3 0 1 1 3-3 3.009 3.009 0 0 1 -3 3zm7-9h-2v-2h2zm0-4h-3a1 1 0 0 0 -1 1v4a1 1 0 0 0 1 1h3v3h-2.1a5 5 0 0 0 -9.8 0h-4.1v-22h5v9a1 1 0 0 0 1 1h5.49a.01.01 0 0 1 .01.01l4.5 2.57z"></path><path d="m50 39h4v2h-4z"></path><path d="m11 55h-9v2h60v-2h-9-33z"></path><path d="m20 11h12v2h-12z"></path><path d="m16 7h12v2h-12z"></path><path d="m12 7h2v2h-2z"></path><path d="m7 26v9h2v-4h3v-2h-3v-2h4v-2h-5a1 1 0 0 0 -1 1z"></path><path d="m24 26v8a1 1 0 0 0 1 1h5v-2h-4v-2h3v-2h-3v-2h4v-2h-5a1 1 0 0 0 -1 1z"></path><path d="m32 26v8a1 1 0 0 0 1 1h5v-2h-4v-2h3v-2h-3v-2h4v-2h-5a1 1 0 0 0 -1 1z"></path><path d="m22 28a3.009 3.009 0 0 0 -3-3h-3a1 1 0 0 0 -1 1v9h2v-4h2a1 1 0 0 1 1 1v3h2v-3a2.974 2.974 0 0 0 -.78-2 2.974 2.974 0 0 0 .78-2zm-3 1h-2v-2h2a1 1 0 0 1 0 2z"></path><path d="m52 49h2v2h-2z"></path><path d="m19 49h2v2h-2z"></path><path d="m10 49h2v2h-2z"></path></g></svg>