<svg fill="#EE7D21" id="Outline" height="512" viewBox="0 0 64 64" width="512" xmlns="http://www.w3.org/2000/svg"><g><path d="m32.5 37c-1.379 0-2.5 1.121-2.5 2.5s1.121 2.5 2.5 2.5 2.5-1.121 2.5-2.5-1.121-2.5-2.5-2.5zm0 3c-.275 0-.5-.225-.5-.5s.225-.5.5-.5.5.225.5.5-.225.5-.5.5z"></path><path d="m32.5 25c-1.379 0-2.5 1.121-2.5 2.5s1.121 2.5 2.5 2.5 2.5-1.121 2.5-2.5-1.121-2.5-2.5-2.5zm0 3c-.275 0-.5-.225-.5-.5s.225-.5.5-.5.5.225.5.5-.225.5-.5.5z"></path><circle cx="39" cy="31" r="1"></circle><circle cx="34" cy="34" r="1"></circle><path d="m63 45h-4.6c4.996-5.814 5.413-10.579 5.428-10.799.023-.326-.114-.644-.369-.85-.255-.207-.596-.274-.908-.182l-8.146 2.379c-.466.133-.959-.076-1.171-.507-1.969-3.998-7.972-13.371-21.234-14.041-6.796 0-12.482 1.752-16.936 5.175-1.425-.535-2.289-.919-2.547-1.038l-3.422-2.566c.119-.883.169-2.417-.665-3.484-.387-.496-1.122-1.087-2.43-1.087-1.491 0-2.254.624-2.631 1.147-.386.534-.514 1.148-.528 1.693-.545.015-1.159.143-1.693.528-.524.378-1.148 1.141-1.148 2.632 0 .876.337 1.622.974 2.159 1.353 1.14 3.745 1.006 4.756.889l3.425 2.568c.136.378.406 1.073.814 1.944-3.68 5.382-4.648 11.191-4.889 13.44h-4.08c-.553 0-1 .447-1 1v3c0 1.654 1.346 3 3 3h.465l5.922 8.883c1.301 1.952 3.479 3.117 5.824 3.117h33.578c2.345 0 4.522-1.165 5.824-3.117l5.922-8.883h.465c1.654 0 3-1.346 3-3v-3c0-.553-.447-1-1-1zm-51.888-15.866 1.252-1.877c1.567.669 5.434 2.185 11.549 3.713 2.803.701 3.212 3.23 3.062 5.229-.107 1.434-.898 2.684-2.169 3.431-1.403.823-3.13.902-4.621.215-5.663-2.622-8.417-8.992-9.073-10.711zm-4.512-3.934c-.174-.131-.385-.2-.6-.2-.057 0-.113.005-.169.015-.846.144-2.826.241-3.568-.385-.13-.109-.263-.27-.263-.63 0-.354.055-.817.313-1.007.348-.253 1.078-.138 1.37-.045.36.122.756.026 1.023-.241s.361-.664.241-1.023c-.079-.238-.217-1.007.043-1.367.19-.262.654-.317 1.01-.317.542 0 .746.181.853.315.445.568.312 1.893.178 2.442-.098.39.048.801.37 1.042l3.243 2.432-.889 1.334zm4.43 8.383c1.609 2.776 4.276 6.207 8.315 8.075.94.436 1.947.651 2.951.65 1.224 0 2.442-.32 3.523-.956 1.844-1.083 2.992-2.907 3.149-5.004.29-3.853-1.376-6.521-4.571-7.318-2.851-.713-5.204-1.427-7.055-2.048 3.934-2.64 8.846-3.982 14.607-3.983 12.151.614 17.677 9.244 19.488 12.926.643 1.305 2.13 1.951 3.526 1.544l6.552-1.913c-.547 1.926-2.01 5.495-5.814 9.444h-48.602c.249-2.055 1.107-6.849 3.931-11.417zm41.919 26.19c-.929 1.395-2.485 2.227-4.16 2.227h-33.578c-1.675 0-3.23-.832-4.16-2.227l-5.183-7.773h52.263zm9.051-10.773c0 .552-.448 1-1 1h-58c-.552 0-1-.448-1-1v-2h60z"></path><path d="m47.5 33.67c-1.156-.667-2.503-.848-3.794-.499-.965.258-1.811.786-2.455 1.519l-2.759-1.56c-.324-.184-.725-.172-1.037.032-.313.203-.486.563-.45.935.028.294.759 7.196 5.772 8.342.841.192 1.614.289 2.317.288 1.959 0 3.38-.744 4.235-2.227 1.379-2.388.559-5.451-1.829-6.83zm.098 5.83c-.435.754-1.36 1.678-4.375.989-2.186-.499-3.272-2.789-3.791-4.53l1.612.911c.477.27 1.083.105 1.358-.37.827-1.432 2.668-1.925 4.098-1.098 1.433.827 1.925 2.665 1.098 4.098z"></path><path d="m32 17c.183 0 .365-.05.525-.149.295-.183.475-.504.475-.851 0-2.48.099-4.902 1.295-7.257.486-.957.782-2.131.903-3.588.126-1.503.051-3.008-.218-4.352-.1-.503-.577-.843-1.079-.798-.511.051-.901.481-.901.995 0 2.086-.753 2.839-1.707 3.793-1.022 1.021-2.293 2.293-2.293 5.207 0 5.46 2.291 6.764 2.553 6.895.141.07.294.105.447.105zm-1-7c0-2.086.753-2.839 1.707-3.793.132-.132.269-.269.406-.412-.123.818-.321 1.491-.602 2.042-.758 1.491-1.138 2.996-1.328 4.48-.111-.631-.183-1.395-.183-2.317z"></path><path d="m23.167 18.5c.183 0 .365-.05.525-.149.295-.183.475-.504.475-.851 0-2.047.081-4.044 1.06-5.972.416-.815.668-1.813.771-3.052.106-1.271.042-2.54-.185-3.673-.101-.504-.572-.842-1.079-.799-.511.052-.901.482-.901.996 0 1.669-.576 2.245-1.374 3.043-.872.873-1.959 1.959-1.959 4.457 0 4.651 1.993 5.781 2.22 5.895.141.07.295.105.447.105zm-.667-6c0-1.64.557-2.225 1.332-3.001-.097.432-.226.804-.388 1.122-.443.874-.734 1.751-.924 2.623-.013-.232-.02-.48-.02-.744z"></path><path d="m39.802 18.5c.183 0 .365-.05.525-.149.295-.183.475-.504.475-.851 0-2.046.081-4.042 1.062-5.973.416-.818.668-1.816.77-3.05.106-1.27.043-2.54-.184-3.674-.101-.503-.578-.841-1.08-.798-.512.051-.901.481-.901.995 0 1.669-.576 2.245-1.374 3.043-.872.873-1.959 1.959-1.959 4.457 0 4.65 1.992 5.781 2.219 5.895.141.07.293.105.447.105zm-.666-6c0-1.64.556-2.225 1.332-3.001-.097.431-.226.803-.388 1.122-.443.873-.734 1.75-.924 2.622-.013-.232-.02-.479-.02-.743z"></path><path d="m49.999 59c.305 0 .604-.138.801-.4l3-4c.332-.441.242-1.068-.2-1.399-.441-.331-1.068-.242-1.399.2l-3 4c-.332.441-.242 1.068.2 1.399.179.135.389.2.598.2z"></path></g></svg>