<svg id="Layer_1" enable-background="new 0 0 510.24 510.24" height="512" viewBox="0 0 510.24 510.24" width="512" xmlns="http://www.w3.org/2000/svg"><path d="m504 373.633c-1.01 100.49-109.24 112.5-244 112.5s-252-12-252-112.5c0-104.547 141.603-113.5 248-113.5 108.411 0 248.992 5.091 248 113.5z" fill="#fff3e4"></path><path d="m503.73 364.082c-14.31 18.82-34.76 32.96-54.57 46.4-24.77 16.8-50.21 33.92-79.26 41.15-35.943 8.941-131.23 6.831-173.48 3.08-29.8-2.64-59.39-7.12-88.97-11.61-12.31-1.861-13.616-5.588-16.63-18.01-3.95-16.37-13.17-31.44-25.95-42.41-17.584-15.096-45.806-24.834-42.88-58.9 34.25-51.76 127.4-63.65 234.01-63.65 130.32.001 241.45 13.091 247.73 103.95z" fill="#ffdfba"></path><path d="m483.07 149.453c9.67-40.57-7.74-66.91-18.07-57.32-4.91 4.56-16.85 11.71-30.28 19.07-37.44 20.509-79.673 32.803-124.02 34.93-22.88 1.1-49.23 1.16-75.5-1.36-22.972-27.33-61.954-66.216-95.61-77.59 16.6-32.57-7.88-42.12-24.59-43.05-18-1-19 34-31 22s-23-6-23-6c-35.73 4.99-27.27 54.17-23.39 70.65-7.3 5.86-15.16 12.31-20.95 17.51-3.426 3.08-1.84 9.094 3.08 9.7 2.26.28 4.53.75 6.83 1.35-17.28 27.8 7.22 28.11 8.43 41.79 1.707 19.393 14.549 27.023 32.86 24.13.52-2.15.81-3.2.84-3.2 0 4.681-10.744 24.622-6.68 59.79 4.94 42.89 29.31 82.33 53.65 98.11 43.79 28.4 94.43 44.62 146.36 49.88 106.58 10.8 143.56-24.42 156.11-54.3 8.35-19.89 5.86-37.41 5.86-37.41 60-6 45-65 45-65l2 1c8.35-6.1 14.68-12.44 19.38-18.86 27.66-37.77-1.22-78.09-7.31-85.82z" fill="#ffe773"></path><path d="m418.14 355.542c-12.55 29.88-49.53 65.1-156.11 54.3-51.93-5.26-102.57-21.48-146.36-49.88-23.94-15.52-48.649-54.69-53.65-98.11 17.397-9.154 42.206-24.732 58.13-13.48 19.61 13.86 38.09 27.57 60.92 35.92 24.61 9 52.02 11.76 77.16 4.37 8.429-2.473 9.782-2.086 15.89 1.51 24.12 14.27 55.06 16.32 80.85 5.37 6.78-2.88 13.41-6.65 20.75-7.27 11.85-1.01 23.12 6.7 29.55 16.71 8.432 13.134 11.446 35.056 12.87 50.56z" fill="#efd66c"></path><path d="m490.38 235.273c-11.13.03-22.92-1.66-32.46 3.92-8.31 4.86-12.82 14.13-19.27 21.28-11.94 13.23-31.62 18.9-48.77 14.04 1.82-18.12 17.8-31.11 26.37-47.19 10.91-20.47 9.86-46.41 21.98-65.77-8.01 9.68-21.27 14.31-33.56 18.18-19.17 6.05-39.09 12.17-59.02 9.61 4.92-10.61 17.79-14.29 27.63-20.61 15.8-10.15 23.98-27.55 32.47-43.7 23.38-9.584 51.959-26.129 59.25-32.9 10.33-9.59 27.74 16.75 18.07 57.32 6.09 7.73 34.97 48.05 7.31 85.82z" fill="#efd66c"></path><path d="m206.59 113.933c-.02 4.71-.19 9.44-.36 14.12-.09 2.45-.22 5.05-1.59 7.08-3.06 4.575-17.809 9.443-23.5 10.79-1.69.4-3.52.81-4.68 2.11-1.97 2.2-1.08 5.77-2.44 8.4-2.606 5.024-8.63 3.839-35.66 3.55-3.42-.04-7.78.58-8.66 3.89-.57 2.14.71 4.26 1.58 6.29 3.9 9.11-1.67 21.01-11.16 23.84-8.65 2.59-18.32-1.65-26.86 1.28-12.349 4.219-16.208 20.734-29.36 24.92.879-4.038 1.614-6.418 2.7-10.11 2.029-7.142 2.823-11.292 1.26-4.83-18.26 2.885-31.144-4.637-32.86-24.13-1.206-13.672-25.707-13.984-8.43-41.79-2.3-.6-4.57-1.07-6.83-1.35-4.918-.606-6.508-6.618-3.08-9.7 5.79-5.2 13.65-11.65 20.95-17.51-7-29.77-6.895-66.42 23.39-70.65 0 0 11-6 23 6s13-23 31-22c16.71.93 41.19 10.48 24.59 43.05 23.38 7.901 49.238 29.447 67 46.75z" fill="#ffec8f"></path><path d="m166.957 105.71c9.761 4.04 14.576 6.479 16.981 15.949 2.697 10.621-2.249 14.392-13.062 16.15-2.199.358-2.755.048-4.099-1.526-8.847-10.362-17.669-11.553-23.749-15.261-3.228-1.968-6.118-4.917-6.858-8.625-.686-3.437.552-6.922 1.422-10.318 3.691-14.416 22.831.926 29.365 3.631z" fill="#fff"></path><path d="m59.442 150.272c-12.134-4.66-28.167-10.856-39.705-12.28-4.92-.607-6.505-6.618-3.066-9.705 3.974-3.567 20.43-17.589 24.78-20.226 2.419-1.466 5.547-.837 7.252 1.419 4.142 5.482 11.19 18.488 16.211 35.715.967 3.315-2.249 6.315-5.472 5.077z" fill="#ffaa64"></path><path d="m139.59 67.193c-30.567-10.376-64.869 9.203-87.32 32.05-3.77 2.92-9.05 7.05-14.66 11.54-7.007-29.802-6.844-66.43 23.39-70.65 0 0 11-6 23 6 12.001 12.001 12.996-23.003 31-22 16.71.929 41.19 10.48 24.59 43.06z" fill="#fe929f"></path><path d="m139.59 67.193c-30.567-10.376-64.869 9.203-87.32 32.05-3.77 2.92-9.05 7.05-14.66 11.54-1.66-7.06-4.16-20.12-3.67-33.14 44.374-16.502 50.58-16.589 57.25-29.89 6.29-4.47 10.17-24.38 23.81-23.62 16.71.929 41.19 10.48 24.59 43.06z" fill="#ea8692"></path><path d="m67.86 205.263c-9.84 1.56-30.58 1.7-32.86-24.13-1.29-13.76-25.795-14.029-8.32-41.96 10.83 2.31 23.77 6.74 33.05 10.18 5.705 2.124 9.681 7.217 10.48 13.18 1.7 12.62 1.46 26.99-2.35 42.73z" fill="#fe929f"></path><path d="m67.86 205.263c-9.84 1.56-30.58 1.7-32.86-24.13-.06-.64-.16-1.25-.32-1.84 1.592-2.411 2.897-5.078 5.25-6.44 5.667-3.278 12.412 2.725 19.86-13.87 1.14-2.55 2.28-5.23 3.74-7.61 3.62 2.6 6.07 6.61 6.68 11.16 1.7 12.62 1.46 26.99-2.35 42.73z" fill="#ea8692"></path><circle cx="104" cy="105.133" r="11"></circle><path d="m484 358.723c0 25.63-22.61 46.41-50.5 46.41s-50.5-29.83-50.5-55.46c0-25.629 22.621-47.54 50.5-47.54 27.571 0 50.5 30.609 50.5 56.59z" fill="#e0b7a3"></path><path d="m433.5 405.133c-37.483 0-71.081-56.684-34.91-89.58 10.03-2.59 20.23-2.39 30.53 2.94 11.602 6.013 12.913 11.437 43.83 13.82 1.37.1 2.76.22 4.16.36 20.204 38.655-7.893 72.46-43.61 72.46z" fill="#a07765"></path><path d="m461 391.723c0 38.218-51.104 64.489-83.57 31.18-10.68-10.96-17.43-26.22-17.43-40.23 0-25.63 22.61-47.54 50.5-47.54 27.518 0 50.5 30.573 50.5 56.59z" fill="#e0b7a3"></path><path d="m377.43 422.903c6.05-2.95 14.72-3.96 19.35-6.54 4.33-2.4 8.46-5.5 10.95-9.78 4.549-7.803.873-8.699 11.642-23.306 8.104-10.993 22.073-17.009 36.528-13.894 23.38 52.338-41.457 91.493-78.47 53.52z" fill="#c79a83"></path><path d="m398.081 356.636c-1.653-1.564-4.744-1.737-5.975.177-1.996 3.102 2.65 8.888-1.462 13.208-3.499 3.676-6.429 11.236 1.618 9.55 8.764-1.837 10.379-18.618 5.819-22.935z" fill="#fff"></path><path d="m367 415.133c0 31.41-46.499 50.403-78.75 36.11-18.463-8.145-33.25-26.442-33.25-44.11 0-21.734 23.95-42 56-42 30.37 0 56 26.847 56 50z" fill="#e0b7a3"></path><path d="m278.37 397.712c-2.307 7.833 14.369 24.199-7.09 42.29-10.06-9.4-16.28-21.6-16.28-32.87 0-19.5 18.59-36.56 43.51-40.92 2.789 15.058-17.852 23.812-20.14 31.5z" fill="#a07765"></path><path d="m367 415.133c0 31.41-46.499 50.403-78.75 36.11 14.853-7.99 31.93-16.646 37.86-32.64 4.918-13.251.908-30.391 3.75-34.9 1.11-1.77 3.18-2.66 5.12-3.46 3.33-1.36 6.8-2.74 10.34-3.1 13.19 10.05 21.68 24.819 21.68 37.99z" fill="#c79a83"></path><path d="m260 415.133c0 33.33-66.339 57.19-109.12 27.61-14.01-9.69-22.88-23.21-22.88-35.61 0-22.64 29.55-42 66-42 36.655 0 66 27.542 66 50z" fill="#e0b7a3"></path><path d="m260 415.133c0 33.33-66.339 57.19-109.12 27.61 16.89-3.08 35.39-6.77 45.2-21.65 3.52-5.33 6.23-12.37 12.45-13.84 4.28-1.01 8.84 1.16 13.12.16 5.11-1.19 8.18-6.46 9.57-11.52 1.585-5.812 1.831-12.182 5.62-17.13 14.18 9.97 23.16 23.89 23.16 36.37z" fill="#c79a83"></path><path d="m163.362 402.65c2.525-1.491 4.871-3.447 7.728-4.109 6.479-1.501 9.373 3.161 20.109-7.35 3.333-3.263 2.116-5.599-1.476-5.964-11.615-1.179-21.626 7.799-32.9 10.835-2.1.566-4.297.941-6.173 2.042-1.874 1.101-3.391 3.174-3.054 5.321.98 6.222 13.113.792 15.766-.775z" fill="#fff"></path><path d="m133 379.933c0 32.138-54.293 54.752-88.82 26.09-11.15-9.24-18.18-22.01-18.18-33.74 0-21.64 23.95-40.15 53.5-40.15 29.512 0 53.5 26.132 53.5 47.8z" fill="#e0b7a3"></path><path d="m85.701 372.88c2.738-1.395 4.012-2.916 3.28-6.95-3.511-19.344-30.98-23.163-36.938-14.186-3.405 5.13.203 12.212-1.558 18.112-2.909 9.746 2.87 7.249 10.445 7.33 8.462.091 17.083-.39 24.771-4.306z" fill="#fff"></path><path d="m44.18 406.023c17.258-3.077 26.268-11.005 39.05-17.51 14.175-7.251 20.26-6.082 22.85-10.87 1.384-2.595.595-11.163 14.85-15.06 2.2-.6 4.45-1.03 6.69-1.48 24.781 44.317-44.392 77.335-83.44 44.92z" fill="#c79a83"></path><path d="m438 354.133c-4.38 0-8-3.554-8-8 0-5.117 4.701-8.831 9.56-7.84 4.498.883 7.158 5.32 6.28 9.4-.757 3.856-4.149 6.44-7.84 6.44z"></path><path d="m15.499 343.629c-5.729 0-9.665-5.921-7.311-11.24 6.16-13.919 15.915-26.132 28.992-36.299 3.487-2.711 8.514-2.083 11.226 1.406 2.712 3.488 2.083 8.514-1.406 11.226-10.967 8.526-19.103 18.668-24.181 30.143-1.323 2.987-4.251 4.764-7.32 4.764z"></path><path d="m260 494.133c-120.518 0-208.102-10.778-243.821-63.381-2.482-3.655-1.531-8.63 2.124-11.112 3.655-2.483 8.63-1.531 11.112 2.124 15.16 22.326 43.643 37.453 87.075 46.247 63.61 12.88 194.468 12.77 256.779 4.58 4.378-.575 8.399 2.508 8.975 6.889.576 4.38-2.508 8.398-6.889 8.975-36.835 4.841-77.982 5.678-115.355 5.678z"></path><path d="m398.564 476.676c-.976-4.309 1.726-8.594 6.035-9.57 41.594-9.424 68.177-25.792 81.27-50.04 2.1-3.888 6.953-5.337 10.84-3.239 3.888 2.099 5.338 6.953 3.239 10.84-15.417 28.552-45.449 47.538-91.813 58.043-4.31.977-8.595-1.725-9.571-6.034z"></path><path d="m345.028 273.85c-8.532 0-11.12-11.651-3.382-15.254 46.398-21.607 57.507-60.964 51.968-68.967-.771.052-3.011.749-6.492 3.65-45.135 37.611-115.118 10.463-118.074 9.29-4.106-1.631-6.114-6.281-4.483-10.388 1.63-4.104 6.275-6.109 10.38-4.486.102 0 64.136 24.792 101.934-6.708 17.694-14.744 33.294-5.723 33.846 13.233.332 11.375-4.391 25.255-12.956 38.083-11.953 17.901-29.71 31.644-49.369 40.799-1.092.508-2.241.748-3.372.748z"></path><path d="m366.355 293.926c-3.772-2.301-8.696-1.108-10.996 2.664-22.342 36.628-63.779 33.384-94.995 23.989 5.093-2.476 10.26-5.239 15.5-8.293 3.817-2.225 5.108-7.123 2.883-10.94-2.225-3.818-7.123-5.106-10.94-2.883-36.96 21.543-69.13 27.278-95.611 17.043-38.383-14.834-52.712-59.034-52.852-59.479-1.319-4.21-5.797-6.56-10.014-5.245-4.218 1.314-6.572 5.799-5.258 10.018.657 2.109 16.621 51.864 62.216 69.576 23.338 9.066 47.852 7.273 71.805-.668 50.099 19.982 103.043 20.926 130.926-24.785 2.3-3.774 1.108-8.697-2.664-10.997z"></path><path d="m479.403 257.787c38.229-30.264 39.236-72.771 12.268-110.202 6.542-31.892-2.176-56.2-14.193-63.213-6.013-3.51-12.88-2.782-17.922 1.899-2.157 2.003-8.751 6.994-28.683 17.917-51.879 28.449-100.173 35.442-157.461 34.611-4.44-.09-8.051 3.465-8.115 7.883s3.465 8.051 7.883 8.115c59.56.865 110.519-6.492 165.385-36.579 15.94-8.736 26.193-15.187 31.349-19.74 8.447 6.17 17.853 45.949-15.491 94.101-3.705 5.351.216 12.555 6.57 12.555 2.537 0 5.031-1.204 6.584-3.447 7.624-11.01 13.637-22.219 17.994-33.483 15.37 29.601 10.592 56.752-17.628 78.225-10.591 8.065 1.379 35.697-13.898 51.407-30.079-14.102-69.599 5.072-77.62 38.863-12.297 8.505-20.828 21.069-23.509 35.322-33.081-28.038-80.722-15.332-98.448 10.757-7.814-8.782-17.7-15.565-28.397-20.092-4.069-1.723-8.764.18-10.485 4.249-1.722 4.069.18 8.763 4.249 10.485 15.638 6.62 32.165 21.804 32.165 36.713 0 17.888-26.561 33-58 33-31.236 0-58-22.544-58-41 0-18.112 27.103-34 58-34 4.418 0 8-3.582 8-8s-3.582-8-8-8c-21.117 0-40.182 6.017-53.677 15.636-4.443-24.18-29.998-48.636-60.823-48.636-33.911 0-61.5 21.602-61.5 48.154 0 25.363 26.865 54.846 61.5 54.846 15.431 0 30.046-4.326 41.358-12.189 2.436 11.22 9.98 22.361 21.519 31.462 37.767 29.786 95.633 18.456 116.844-7.767 34.343 42.688 99.427 26.388 113.162-9.492 34.401 34.432 86.82 11.944 95.388-26.314 34.307-23.028 30.084-68.716-.194-95.085 14.215-16.883 9.78-37.742 11.826-48.961zm-399.903 152.346c-24.504 0-45.5-21.36-45.5-38.846 0-17.429 20.836-32.154 45.5-32.154 24.504 0 45.5 21.886 45.5 39.802 0 16.911-20.836 31.198-45.5 31.198zm279.5 4c0 32.488-67.643 50.794-91.73 6.98 1.651-7.982.374-15.676-2.821-23.028 5.4-14.964 24.786-25.952 46.551-25.952 26.391 0 48 23.888 48 42zm108.974-33.939c-1.072-5.666-2.97-11.409-5.653-16.992-1.914-3.982-6.693-5.66-10.676-3.745-3.982 1.914-5.659 6.693-3.745 10.676 16.028 33.354-9.173 59-37.4 59-16.038 0-29.986-12.33-37.204-26.717-.879-3.139-2.099-6.285-3.641-9.384-7.836-27.974 15.074-50.899 40.845-50.899 4.418 0 8-3.582 8-8s-3.582-8-8-8c-4.332 0-8.594.471-12.735 1.358 10.768-15.559 32.894-23.231 49.958-14.924 1.372 1.972 3.478 3.146 5.709 3.385 17.253 12.159 32.313 42.023 14.542 64.242z"></path><path d="m239.499 137.448c-23.144-26.81-57.169-60.147-89.362-74.44 8.246-26.597-8.567-45.412-34.693-46.864-15.898-.891-22.159 14.558-27.308 22.883-11.404-10.33-23.195-9.329-29.503-6.626-19.923 3.3-31.669 17.85-33.122 41.111-.275 4.41 3.076 8.208 7.486 8.483 4.405.278 8.208-3.075 8.483-7.486 1.715-27.475 19.429-25.215 23.35-27.354.059-.03 5.957-2.921 13.513 4.634 3.723 3.724 7.735 5.32 11.919 4.742 13.074-1.801 15.778-24.856 24.293-24.411 6.925.385 15.719 3.085 19.631 9.512 2.53 4.157 2.796 9.577.825 16.152-30.451-7.264-67.371 13.71-92.515 32.289-4.35 3.214-42.496 31.839-42.496 47.06 0 3.42 2.232 7.238 7.219 8.058 5.233.859 41.545 2.099 53.168 8.238 3.442 14.524 3.737 29.414.886 44.397-11.508.159-17.234-5.273-18.304-17.396-.676-7.657-5.59-12.472-8.841-15.657-3.156-3.092-8.221-3.04-11.313.116s-3.041 8.221.116 11.313c2.672 2.618 3.967 4.129 4.1 5.635 1.747 19.786 13.335 30.451 30.232 31.829-7.605 28.729-4.695 61.543 8.331 92.897 1.704 4.1 6.397 6.006 10.457 4.318 4.08-1.695 6.014-6.377 4.318-10.457-12.195-29.354-14.578-59.889-6.725-85.931 8.228-26.651 7.726-56.155-3.974-84.127-3.625-8.668-16.753-4.984-15.275 4.333-8.724-1.981-19.843-3.291-33.11-4.369 20.34-23.416 69.235-58.207 100.576-58.207 33.895 0 83.182 49.894 105.467 75.712 8.754 10.362 12.672 19.167 12.672 23.298 0 4.418 3.582 8 8 8s8-3.582 8-8c0-12.313-10.306-26.351-16.501-33.685z"></path><path d="m313 285.133c-4.413 0-8-3.578-8-8 0-5.117 4.701-8.831 9.56-7.84 4.478.879 7.163 5.3 6.28 9.4-.753 3.834-4.126 6.44-7.84 6.44z"></path></svg>