<svg fill="#FFFFFF" viewBox="0 -72 512 512" xmlns="http://www.w3.org/2000/svg"><path d="m207.800781 0h-192.800781c-8.285156 0-15 6.714844-15 15v192.800781c0 8.285157 6.714844 15 15 15h81.398438v129.601563c0 8.28125 6.714843 15 15 15h48.203124c6.453126 0 12.1875-4.132813 14.226563-10.257813l48.199219-144.597656c.511718-1.53125.773437-3.132813.773437-4.746094v-192.800781c0-8.285156-6.714843-15-15-15zm-15 205.367188-44.011719 132.03125h-22.390624v-129.597657c0-8.285156-6.714844-15-15-15h-81.398438v-162.800781h162.800781zm0 0"></path><path d="m497 0h-192.800781c-8.285157 0-15 6.714844-15 15v192.800781c0 8.285157 6.714843 15 15 15h81.402343v129.601563c0 8.28125 6.714844 15 15 15h48.199219c6.457031 0 12.1875-4.132813 14.230469-10.257813l48.199219-144.597656c.507812-1.53125.769531-3.132813.769531-4.746094v-192.800781c0-8.285156-6.714844-15-15-15zm-15 205.367188-44.011719 132.03125h-22.386719v-129.597657c0-8.285156-6.71875-15-15-15h-81.402343v-162.800781h162.800781zm0 0"></path></svg>