<svg height="512" viewBox="0 0 64 64" width="512" xmlns="http://www.w3.org/2000/svg"><g id="Filled_outline" data-name="Filled outline"><path d="m53 9h-4c-4.985 0-8.526 2.671-11 7-1.75 3.251-5.3 6-9 6-9 0-9-8-9-8a5 5 0 0 0 -5-5 5 5 0 0 0 -5 5c0 1.846.024 3.465-1 5a16.924 16.924 0 0 0 -3 13c.842 5.052 6.179 11.124 12 14a5.317 5.317 0 0 1 3 5h8v-3h1c21 0 19-17 19-17h4a2 2 0 0 0 2-2 2 2 0 0 0 -2-2h1a3 3 0 0 0 3-3 3 3 0 0 0 -3-3h2a3 3 0 0 0 3-3 3 3 0 0 0 -3-3h2a3 3 0 0 0 3-3 3 3 0 0 0 -3-3z" fill="#f0f0d9"></path><path d="m15 17a6.65 6.65 0 0 0 5-3 5 5 0 0 0 -5-5 5 5 0 0 0 -5 5v1a6.563 6.563 0 0 0 5 2z" fill="#da1c4b"></path><path d="m61 12a3 3 0 0 0 -3-3h-9c-4.985 0-8.526 2.671-11 7a12.249 12.249 0 0 1 -5 4.962v.038c.282-.1 6.931-2.345 12 2 3.46 2.966 4 6 4 8h4a2 2 0 0 0 0-4h1a3 3 0 0 0 0-6h2a3 3 0 0 0 0-6h2a3 3 0 0 0 3-3z" fill="#d3843d"></path><path d="m15 9a4.985 4.985 0 0 1 4.768 3.571 3.986 3.986 0 0 0 2.232-3.571v-4a2 2 0 0 0 -4 0 2 2 0 0 0 -4 0 2 2 0 0 0 -4 0v8h.1a5 5 0 0 1 4.9-4z" fill="#b11e48"></path><path d="m10 9-7 3 7 2z" fill="#f9bb4b"></path><path d="m23 51v6h-4a2 2 0 0 0 -2 2 2 2 0 0 0 2 2h6a2 2 0 0 0 2-2v-8z" fill="#f9bb4b"></path><path d="m15 17a6.11 6.11 0 0 1 -3-.592v2.592a2 2 0 0 0 4 0v-2.155a5.874 5.874 0 0 1 -1 .155z" fill="#b11e48"></path><path d="m36.367 47.367a29.171 29.171 0 0 1 -5.392.608l5.025 5.025-2 2a2.121 2.121 0 0 0 3 3l3-3a2.787 2.787 0 0 0 0-4z" fill="#f9bb4b"></path><path d="m13 12h2v2h-2z"></path><path d="m58 8h-9c-5.029 0-9.022 2.524-11.88 7.526-1.735 3.221-5.069 5.474-8.111 5.474h-.009c-7.857 0-8-6.713-8-7a5.986 5.986 0 0 0 -.085-.963 4.946 4.946 0 0 0 2.085-4.037v-4a3 3 0 0 0 -5-2.234 2.994 2.994 0 0 0 -4 0 3 3 0 0 0 -5 2.234v3.341l-6.394 2.74a1 1 0 0 0 .119 1.881l6.275 1.792a6.313 6.313 0 0 1 -.83 3.691 17.99 17.99 0 0 0 -3.156 13.719c.886 5.303 6.276 11.636 12.543 14.736a4.338 4.338 0 0 1 2.443 4.1 1 1 0 0 0 1 1h1v4h-6a4 4 0 0 0 -4 4h2a2 2 0 0 1 2-2h.184a2.966 2.966 0 0 0 -.184 1 3 3 0 0 0 3 3h6a3 3 0 0 0 3-3v-7h1a1 1 0 0 0 1-1v-2c.2 0 .374-.017.567-.02l4.019 4.02-3.293 3.293a3.832 3.832 0 0 0 0 5.414l1.414-1.414a1.826 1.826 0 0 1 -.052-2.522 3.119 3.119 0 0 0 5.052.936l3-3a3.787 3.787 0 0 0 0-5.414l-2.4-2.4a16.461 16.461 0 0 0 7.8-4.728 16.713 16.713 0 0 0 3.946-11.165h2.947a3 3 0 0 0 2.671-4.366 4 4 0 0 0 1.652-5.859 4 4 0 0 0 2-6 4 4 0 0 0 -1.323-7.775zm-47-3a1 1 0 0 1 2 0 1 1 0 0 0 2 0 1 1 0 0 1 2 0 1 1 0 0 0 2 0 1 1 0 0 1 2 0v4a2.949 2.949 0 0 1 -.8 2.017 5.979 5.979 0 0 0 -9.2-1.477zm0 9a3.99 3.99 0 0 1 7.972-.273 5.52 5.52 0 0 1 -4.033 2.273 5.552 5.552 0 0 1 -3.939-1.43c0-.148 0-.57 0-.57zm4 4v1a1 1 0 0 1 -2 0v-1.191a6.969 6.969 0 0 0 1.619.2c.124.003.252-.002.381-.009zm-9.021-6.188 3.021-1.295v2.157zm20.021 47.188a1 1 0 0 1 -1 1h-6a1 1 0 0 1 0-2h4a1 1 0 0 0 1-1v-5h2zm13.293-7.293a1.789 1.789 0 0 1 0 2.586l-3 3a1.125 1.125 0 0 1 -1.586 0 1.12 1.12 0 0 1 0-1.586l2-2a1 1 0 0 0 0-1.414l-3.455-3.455c.966-.089 1.889-.224 2.777-.4zm-1.293-22.707a5.006 5.006 0 0 1 5 5 3 3 0 0 1 -3 3 5.006 5.006 0 0 0 -5-5h-2v2h2a3 3 0 0 1 3 3v1a3.163 3.163 0 0 1 -3 3c-9.748 0-12.477-.946-16.219-5.625a15.184 15.184 0 0 1 -2.813-5.626l-1.936.5a17.218 17.218 0 0 0 3.187 6.374c4.195 5.245 7.352 6.377 17.781 6.377a5.161 5.161 0 0 0 4.89-4h.11a5.008 5.008 0 0 0 4.9-4h1.1a3.96 3.96 0 0 0 1.873-.487 13.975 13.975 0 0 1 -3.268 7.319c-3.049 3.429-7.963 5.168-14.605 5.168h-1a1 1 0 0 0 -1 1v2h-6.065a6.23 6.23 0 0 0 -3.492-4.9c-5.65-2.792-10.682-8.62-11.457-13.268a15.914 15.914 0 0 1 2.846-12.277 6.536 6.536 0 0 0 1.014-2.624c.053.032.1.065.154.1v1.969a3 3 0 0 0 6 0v-1.4a7.54 7.54 0 0 0 2.342-1.375 9.788 9.788 0 0 0 .912 2.266c1.158 2.055 3.613 4.509 8.746 4.509h.015a9.6 9.6 0 0 0 4.318-1.072l.007.019c.063-.022 6.337-2.191 11.013 1.817a9.247 9.247 0 0 1 3.647 7.236 2 2 0 0 1 -2 2h-1.08a7.006 7.006 0 0 0 -6.92-6h-3v2zm15 1h-3.056a10.386 10.386 0 0 0 -.386-2h3.442a1 1 0 0 1 0 2zm5-16h-10v2h8a2 2 0 0 1 0 4h-6v2h4a2 2 0 0 1 0 4h-5.261a13.137 13.137 0 0 0 -3.088-3.759 12.549 12.549 0 0 0 -8.871-2.9 13.3 13.3 0 0 0 2.088-2.841c2.499-4.375 5.813-6.5 10.132-6.5h9a2 2 0 0 1 0 4z"></path><path d="m24 35h2v2h-2z"></path><path d="m27 31h2v2h-2z"></path></g></svg>