<!--?xml version="1.0" encoding="iso-8859-1"?-->
<!-- Generator: Adobe Illustrator 19.0.0, SVG Export Plug-In . SVG Version: 6.00 Build 0)  -->
<svg fill="#FFFFFF" version="1.1" id="Capa_1" xmlns="http://www.w3.org/2000/svg" xmlns:xlink="http://www.w3.org/1999/xlink" x="0px" y="0px" viewBox="0 0 512 512" style="enable-background:new 0 0 512 512;" xml:space="preserve">
<g>
	<g>
		<path d="M78.71,448.179c-1.86-1.86-4.439-2.93-7.069-2.93c-2.64,0-5.209,1.07-7.079,2.93c-1.86,1.86-2.93,4.439-2.93,7.069
			s1.07,5.209,2.93,7.069c1.87,1.86,4.439,2.93,7.079,2.93c2.63,0,5.199-1.07,7.069-2.93c1.86-1.86,2.919-4.439,2.919-7.069
			S80.57,450.039,78.71,448.179z"></path>
	</g>
</g>
<g>
	<g>
		<path d="M160.087,474.875c-1.86-1.86-4.439-2.93-7.069-2.93s-5.209,1.07-7.069,2.93c-1.86,1.86-2.93,4.429-2.93,7.069
			c0,2.63,1.07,5.209,2.93,7.069s4.439,2.93,7.069,2.93s5.209-1.07,7.069-2.93c1.86-1.86,2.93-4.439,2.93-7.069
			C163.016,479.304,161.946,476.734,160.087,474.875z"></path>
	</g>
</g>
<g>
	<g>
		<path d="M511.458,339.668c-1.739-10.262-7.867-19.199-16.812-24.52c-13.947-8.297-31.695-6.072-43.162,5.408l-74.123,74.2
			c-7.254,7.262-16.901,11.26-27.165,11.26h-9.318c0.462-10.219-4.11-19.995-12.805-26.35l-75.763-55.369
			c-26.067-19.05-59.846-24.126-90.347-13.588l-9.969,3.427c-2.579-10.475-3.69-21.228-3.3-32.087
			c0.618-17.222,4.928-33.741,12.809-49.096l63.854-124.403h136.996l62.972,124.62c2.495,4.936,4.653,10.087,6.418,15.31
			c1.769,5.231,7.441,8.039,12.673,6.271c5.231-1.768,8.039-7.442,6.271-12.673c-2.067-6.116-4.595-12.146-7.515-17.925
			L379.666,98.481l31.433-64.245c4.666-9.538,2.672-20.389-5.082-27.643c-7.754-7.254-18.714-8.523-27.92-3.232l-16.931,9.73
			c-3.722,2.141-8.388,1.912-11.883-0.583l-8.886-6.337c-11.523-8.218-27.136-7.595-37.967,1.516l-2.785,2.343
			c-3.961,3.332-9.611,3.477-13.738,0.353l-5.362-4.059c-11.546-8.744-27.393-8.386-38.536,0.87l-5.131,4.263
			c-3.521,2.925-8.557,3.358-12.525,1.078l-15.31-8.799c-9.111-5.235-20.362-3.905-28,3.308c-7.639,7.214-9.609,18.371-4.905,27.766
			l31.9,63.69l-64.327,125.326c-9.231,17.985-14.279,37.334-15.003,57.51c-0.478,13.323,0.974,26.509,4.309,39.328l-34.084,11.717
			l-1.06-6.008c-1.486-8.428-6.165-15.77-13.174-20.68c-7.01-4.908-15.512-6.791-23.937-5.307l-52.458,9.25
			c-5.438,0.959-9.07,6.145-8.111,11.582l32.183,182.52c0.855,4.851,5.074,8.265,9.834,8.264c0.576,0,1.161-0.05,1.748-0.153
			l52.457-9.25c8.428-1.486,15.77-6.165,20.68-13.174c4.908-7.01,6.792-15.51,5.307-23.937l-19.955-113.172l66.03-22.699
			c24.327-8.407,51.254-4.358,72.032,10.827l75.763,55.369c6.098,4.457,4.638,10.726,4.045,12.541
			c-0.593,1.815-3.114,7.739-10.666,7.739c-1.727,0-3.456-0.407-5.002-1.177l-69.267-34.5c-3.964-1.975-8.402-3.018-12.831-3.018
			h-18.438c-5.522,0-9.998,4.476-9.998,9.998c0,5.522,4.476,9.998,9.998,9.998h18.438c1.352,0,2.706,0.318,3.915,0.921l69.267,34.5
			c4.301,2.143,9.114,3.274,13.918,3.274c9.302,0,17.629-3.873,23.373-10.416c0.817,0.216,1.67,0.342,2.554,0.342h14.617
			c15.609,0,30.281-6.082,41.312-17.124l74.123-74.2c4.993-4.999,12.721-5.967,18.792-2.355c3.894,2.317,6.562,6.208,7.32,10.676
			c0.758,4.468-0.479,9.021-3.393,12.491l-60.469,72.028c-23.697,28.226-58.426,44.415-95.28,44.415h-141.87
			c-5.522,0-9.998,4.476-9.998,9.998s4.476,9.998,9.998,9.998h141.869c42.779,0,83.09-18.791,110.595-51.555l60.469-72.028
			C510.357,360.386,513.198,349.929,511.458,339.668z M194.018,25.852c-0.999-1.997-0.141-3.425,0.756-4.271
			c0.896-0.847,2.372-1.622,4.307-0.51l15.31,8.799c11.178,6.424,25.351,5.205,35.267-3.035l5.131-4.263
			c3.956-3.287,9.584-3.415,13.686-0.309l5.362,4.06c11.621,8.798,27.527,8.39,38.682-0.992l2.785-2.343
			c3.846-3.236,9.393-3.457,13.484-0.539l8.886,6.336c9.841,7.02,22.974,7.665,33.458,1.641l16.931-9.73
			c1.925-1.107,3.399-0.341,4.294,0.497c0.896,0.838,1.759,2.257,0.782,4.252l-30.877,63.109H225.423L194.018,25.852z
			 M102.711,468.958c1.152,6.538-3.229,12.794-9.765,13.947l-42.611,7.514L21.623,327.59l42.611-7.514
			c6.543-1.155,12.793,3.228,13.947,9.765L102.711,468.958z"></path>
	</g>
</g>
<g>
	<g>
		<path d="M447.591,273c-5.519,0.135-9.882,4.735-9.746,10.255c0,0.001,0,0.032,0,0.033c0.136,5.435,4.582,9.719,9.988,9.719
			c0.085,0,0.171-0.001,0.256-0.003c5.52-0.138,9.882-4.754,9.745-10.274C457.695,277.211,453.108,272.849,447.591,273z"></path>
	</g>
</g>
<g>
	<g>
		<path d="M293.23,230.523c-11.932,0-21.64-8.396-21.64-18.715s9.707-18.714,21.64-18.714s21.639,8.395,21.639,18.714
			c0,5.522,4.476,9.998,9.998,9.998s9.998-4.476,9.998-9.998c0-18.141-13.494-33.401-31.638-37.575v-4.181
			c0-5.522-4.476-9.998-9.998-9.998s-9.998,4.476-9.998,9.998v4.181c-18.144,4.174-31.638,19.434-31.638,37.575
			c0,21.346,18.678,38.712,41.636,38.712c11.932,0,21.639,8.395,21.639,18.714c0,10.319-9.707,18.714-21.639,18.714
			s-21.64-8.395-21.64-18.714c0-5.522-4.476-9.998-9.998-9.998s-9.998,4.476-9.998,9.998c0,18.141,13.494,33.401,31.638,37.575
			v3.082c0,5.522,4.476,9.998,9.998,9.998s9.998-4.476,9.998-9.998v-3.082c18.144-4.174,31.638-19.434,31.638-37.575
			C334.866,247.888,316.188,230.523,293.23,230.523z"></path>
	</g>
</g>
<g>
</g>
<g>
</g>
<g>
</g>
<g>
</g>
<g>
</g>
<g>
</g>
<g>
</g>
<g>
</g>
<g>
</g>
<g>
</g>
<g>
</g>
<g>
</g>
<g>
</g>
<g>
</g>
<g>
</g>
</svg>
