<svg fill="#EE7D21" height="512" viewBox="0 0 28 28" width="512" xmlns="http://www.w3.org/2000/svg"><g id="Layer_2" data-name="Layer 2"><path d="m18.56 16.94h-3.12l.65-2.16a2.58 2.58 0 0 0 -1.66-3.21 1.41 1.41 0 0 0 -1.81 1l-.1.42a8.61 8.61 0 0 1 -2.26 4l-.57.56a1.56 1.56 0 0 0 -1.21-.59h-.73a1.56 1.56 0 0 0 -1.56 1.54v6.44a1.56 1.56 0 0 0 1.56 1.56h.73a1.55 1.55 0 0 0 1.33-.76l.14.07a6.55 6.55 0 0 0 2.91.69h3.59a3.58 3.58 0 0 0 3-1.6 6.34 6.34 0 0 0 1.07-3.53v-2.49a1.94 1.94 0 0 0 -1.96-1.94zm-9.56 8a.56.56 0 0 1 -.56.56h-.69a.56.56 0 0 1 -.56-.56v-6.44a.56.56 0 0 1 .56-.56h.73a.56.56 0 0 1 .52.56zm10.5-3.57a5.38 5.38 0 0 1 -.9 3 2.59 2.59 0 0 1 -2.15 1.15h-3.59a5.53 5.53 0 0 1 -2.46-.58l-.4-.2v-6.14l.92-.92a9.63 9.63 0 0 0 2.53-4.46l.1-.41a.43.43 0 0 1 .2-.26.4.4 0 0 1 .32 0 1.58 1.58 0 0 1 1 2l-.84 2.81a.5.5 0 0 0 .08.44.48.48 0 0 0 .4.2h3.79a.94.94 0 0 1 .94.94z"></path><path d="m11 7.3-.32 1.85a1.09 1.09 0 0 0 .44 1.09 1.11 1.11 0 0 0 .65.22 1.18 1.18 0 0 0 .52-.13l1.71-.88 1.67.88a1.1 1.1 0 0 0 1.17-.09 1.09 1.09 0 0 0 .44-1.08l-.28-1.86 1.31-1.3a1.1 1.1 0 0 0 .29-1.14 1.12 1.12 0 0 0 -.9-.76l-1.87-.27-.83-1.71a1.12 1.12 0 0 0 -2 0l-.83 1.69-1.87.27a1.12 1.12 0 0 0 -.9.76 1.1 1.1 0 0 0 .29 1.16zm-.6-2.23 2.13-.31a.49.49 0 0 0 .47-.27l1-1.93a.11.11 0 0 1 .2 0l1 1.93a.49.49 0 0 0 .38.27l2.13.31a.12.12 0 0 1 .09.08.11.11 0 0 1 0 .11l-1.54 1.5a.53.53 0 0 0 -.15.45l.37 2.11a.09.09 0 0 1 -.05.11.1.1 0 0 1 -.12 0l-1.9-1a.47.47 0 0 0 -.46 0l-1.91 1a.09.09 0 0 1 -.11 0 .09.09 0 0 1 -.05-.11l.37-2.11a.53.53 0 0 0 -.15-.45l-1.54-1.5a.11.11 0 0 1 0-.11.12.12 0 0 1 -.12-.08z"></path><path d="m7.34 13.25a1 1 0 0 0 1-1.19l-.27-1.52 1.12-1.09a1 1 0 0 0 -.56-1.73l-1.53-.22-.69-1.39a1.05 1.05 0 0 0 -1.82 0l-.69 1.39-1.53.22a1 1 0 0 0 -.56 1.73l1.11 1.09-.27 1.52a1 1 0 0 0 .41 1 1 1 0 0 0 1.07.07l1.37-.72 1.37.72a1 1 0 0 0 .47.12zm-1.84-1.9a.46.46 0 0 0 -.23.06l-1.63.82.36-1.78a.53.53 0 0 0 -.2-.45l-1.29-1.29 1.8-.26a.47.47 0 0 0 .37-.27l.83-1.63.81 1.63a.47.47 0 0 0 .37.27l1.8.29-1.29 1.26a.53.53 0 0 0 -.15.45l.29 1.8-1.61-.84a.46.46 0 0 0 -.23-.06z"></path><path d="m26.45 8.41a1 1 0 0 0 -.82-.69l-1.53-.22-.69-1.39a1.05 1.05 0 0 0 -1.82 0l-.69 1.39-1.53.22a1 1 0 0 0 -.56 1.73l1.11 1.09-.27 1.52a1 1 0 0 0 .41 1 1 1 0 0 0 1.07.07l1.37-.72 1.37.72a1 1 0 0 0 .47.12 1 1 0 0 0 1-1.19l-.27-1.52 1.11-1.09a1 1 0 0 0 .27-1.04zm-2.25 1.59a.53.53 0 0 0 -.15.45l.29 1.8-1.61-.84a.47.47 0 0 0 -.46 0l-1.63.82.36-1.78a.53.53 0 0 0 -.2-.45l-1.29-1.29 1.8-.26a.47.47 0 0 0 .37-.27l.83-1.63.81 1.63a.47.47 0 0 0 .37.27l1.8.29z"></path></g></svg>